<?xml version="1.0" standalone="no"?>
<!DOCTYPE svg PUBLIC "-//W3C//DTD SVG 20010904//EN"
 "http://www.w3.org/TR/2001/REC-SVG-20010904/DTD/svg10.dtd">
<svg version="1.0" xmlns="http://www.w3.org/2000/svg"
 width="256.000000pt" height="256.000000pt" viewBox="0 0 256.000000 256.000000"
 preserveAspectRatio="xMidYMid meet">

<g transform="translate(0.000000,256.000000) scale(0.100000,-0.100000)"
fill="#000000" stroke="none">
<path d="M725 1801 c-59 -28 -299 -198 -381 -270 -23 -20 -54 -52 -70 -71 -26
-32 -26 -33 -4 -16 14 11 10 5 -8 -13 -36 -36 -42 -75 -14 -90 15 -8 71 11
253 84 129 52 242 95 252 95 34 0 15 -41 -56 -117 -16 -17 -26 -36 -23 -41 3
-6 1 -14 -5 -18 -8 -5 -10 -2 -5 7 14 26 -87 -86 -171 -191 -46 -58 -118 -155
-159 -216 -41 -62 -84 -120 -95 -130 -20 -18 -26 -44 -9 -44 5 0 17 12 27 28
60 95 314 406 481 589 108 118 120 145 76 165 -28 13 -23 14 -341 -97 -90 -31
-172 -55 -184 -53 -19 3 -14 11 40 70 116 126 326 268 397 268 29 0 34 -3 34
-24 0 -13 7 -29 15 -36 11 -9 19 -7 40 14 32 32 34 87 5 116 -25 25 -24 25
-95 -9z m-385 -296 c-24 -25 -46 -45 -49 -45 -3 0 15 20 39 45 24 25 46 45 49
45 3 0 -15 -20 -39 -45z m185 -59 c-53 -25 -103 -42 -95 -33 8 8 124 56 135
56 6 0 -12 -11 -40 -23z m123 -133 c-8 -10 -74 -91 -147 -180 -73 -90 -135
-163 -137 -163 -8 0 76 111 165 218 47 57 95 114 105 128 11 13 22 22 24 19 3
-3 -2 -13 -10 -22z"/>
<path d="M902 1763 c-9 -28 -7 -56 23 -279 l7 -51 -132 -103 c-197 -153 -295
-250 -252 -250 5 0 57 47 118 105 120 115 260 230 267 218 3 -5 17 -100 33
-213 27 -200 37 -241 56 -222 6 6 1 33 -10 68 -20 59 -45 200 -57 325 l-6 66
68 43 c37 24 78 50 91 57 25 15 25 31 0 47 -13 8 -27 -2 -68 -48 -95 -103 -93
-105 -89 91 4 165 4 168 -17 171 -16 2 -24 -4 -32 -25z"/>
<path d="M1638 1673 c-45 -73 -94 -172 -143 -286 -21 -48 -39 -86 -42 -84 -7
7 18 184 37 264 16 67 17 80 5 92 -30 31 -42 -2 -48 -136 -8 -139 -29 -289
-46 -321 -6 -10 -8 -22 -5 -25 3 -3 1 -16 -6 -29 -10 -21 -10 -21 3 -5 8 9 23
17 35 17 23 0 32 18 32 63 0 18 11 56 25 85 14 30 22 59 18 65 -3 5 -2 7 4 4
6 -4 15 5 22 19 6 15 7 23 1 19 -14 -9 -13 -3 11 52 28 66 90 176 96 170 2 -3
-19 -50 -46 -106 -28 -56 -49 -101 -47 -101 2 0 25 37 51 83 26 45 65 104 87
131 42 53 45 79 12 84 -16 2 -29 -11 -56 -55z"/>
<path d="M1814 1709 c-3 -6 -13 -43 -21 -82 -19 -97 -62 -228 -82 -251 -9 -10
-64 -52 -123 -94 -61 -43 -108 -83 -108 -92 0 -30 20 -38 86 -32 78 6 78 4 24
-96 -43 -79 -49 -105 -24 -100 9 2 33 43 57 100 23 54 47 99 53 102 15 6 181
-13 211 -25 19 -7 24 -14 20 -32 -14 -58 -19 -120 -10 -114 6 4 14 31 18 62 3
30 10 57 15 60 16 10 47 -13 60 -45 9 -21 19 -30 36 -30 43 0 42 34 -2 61
l-25 15 48 31 c51 34 65 30 38 -11 -17 -26 -13 -46 9 -46 12 0 69 148 85 220
9 43 60 144 108 217 34 50 39 74 13 58 -6 -4 -35 -56 -65 -115 -36 -71 -59
-108 -68 -104 -19 7 -72 -37 -128 -107 -59 -72 -70 -97 -58 -121 8 -15 6 -16
-20 -7 l-29 10 19 67 c30 103 35 142 17 142 -26 0 -35 -22 -42 -105 -3 -43 -9
-82 -14 -87 -6 -6 -184 16 -219 27 -12 4 18 102 57 185 10 22 120 97 293 199
20 13 37 27 37 32 0 17 -37 9 -66 -13 -53 -43 -238 -168 -241 -164 -2 2 16 67
41 143 25 77 46 142 46 144 0 10 -40 7 -46 -2z m-133 -436 c-21 -59 -33 -79
-49 -81 -30 -5 -87 13 -87 26 0 12 143 132 157 132 4 0 -5 -35 -21 -77z m479
48 c0 -31 -42 -101 -72 -118 -46 -29 -78 -37 -78 -22 0 23 52 89 94 119 42 31
56 36 56 21z"/>
<path d="M1313 1633 c-3 -10 -21 -57 -40 -105 -38 -97 -73 -227 -73 -269 0
-38 15 -75 34 -82 9 -4 27 3 41 16 20 17 29 39 39 97 l14 75 16 -37 c16 -37
47 -63 60 -51 13 14 5 42 -18 56 -46 30 -63 216 -22 239 30 17 8 78 -28 78 -9
0 -19 -8 -23 -17z m-17 -287 c-15 -65 -40 -116 -56 -116 -5 0 -11 13 -15 30
-8 37 17 138 53 210 l27 55 3 -56 c2 -31 -4 -87 -12 -123z"/>
<path d="M1167 1483 c-20 -43 -44 -103 -54 -133 l-18 -55 -5 83 c-8 138 -25
96 -31 -80 -6 -164 -1 -191 28 -166 8 6 13 33 13 68 0 86 51 233 106 307 27
36 30 53 11 53 -8 0 -30 -35 -50 -77z"/>
<path d="M1934 1415 c-3 -8 -3 -19 1 -25 9 -14 35 6 35 26 0 19 -29 18 -36 -1z"/>
<path d="M2248 1292 c-34 -26 -64 -55 -66 -65 -5 -27 26 -32 58 -8 44 32 48
25 8 -16 -19 -21 -50 -60 -68 -88 -32 -49 -31 -49 51 30 123 119 133 135 82
136 l-28 0 23 16 c22 15 30 43 13 43 -6 0 -38 -21 -73 -48z"/>
<path d="M1266 914 c-42 -81 -76 -156 -76 -166 0 -32 17 -11 35 43 9 29 41
101 71 161 30 59 52 108 50 108 -3 0 -39 -66 -80 -146z"/>
</g>
</svg>
